# xmcd
#
# Track frame offsets:
# 150
# 20397
# 41292
# 45671
# 68710
# 72110
# 89837
# 108364
# 132322
# 145941
# 162732
# 184540
# 204897
# 228521
#
# Disc length: 3196 seconds
#
#
# Revision: 7
# Processed by: cddbd v1.5.2PL0 Copyright (c) Steve Scherf et al.
# Submitted via: FreeRIP 2.60 
#
DISCID=c00c7a0e
DTITLE=Vibe - Re Fill
DYEAR=2006
DGENRE=R&B
TTITLE0=한숨만
TTITLE1=그남자 그여자 (feat 장혜진)
TTITLE2=어쩌면
TTITLE3=REFILL
TTITLE4=BROKENHEARTED
TTITLE5=가지말아요 (feat 전인권)
TTITLE6=술이야
TTITLE7=정녕
TTITLE8=권태기(倦怠期) feat 하림,조PD
TTITLE9=GOOD BYE
TTITLE10=I'M MISSING YOU
TTITLE11=속도 모르고
TTITLE12=바래다주는길
TTITLE13=우리가 다시 만날 날 (piano 이루마)
EXTD=Re fill YEAR: 2006
EXTT0=
EXTT1=
EXTT2=
EXTT3=
EXTT4=
EXTT5=
EXTT6=
EXTT7=
EXTT8=
EXTT9=
EXTT10=
EXTT11=
EXTT12=
EXTT13=
PLAYORDER=
